<svg xmlns="http://www.w3.org/2000/svg" xmlns:svg="http://www.w3.org/2000/svg" xmlns:xlink="http://www.w3.org/1999/xlink" id="svg3612" width="64" height="64" version="1.1"><defs id="defs3614"><marker id="Arrow1Mend" orient="auto" refX="0" refY="0" style="overflow:visible"><path id="path3835" d="M 0.0,0.0 L 5.0,-5.0 L -12.5,0.0 L 5.0,5.0 L 0.0,0.0 z" transform="scale(0.4) rotate(180) translate(10,0)" style="fill-rule:evenodd;stroke:#000;stroke-width:1pt"/></marker><marker id="Arrow1Mstart" orient="auto" refX="0" refY="0" style="overflow:visible"><path id="path3832" d="M 0.0,0.0 L 5.0,-5.0 L -12.5,0.0 L 5.0,5.0 L 0.0,0.0 z" transform="scale(0.4) translate(10,0)" style="fill-rule:evenodd;stroke:#000;stroke-width:1pt"/></marker><marker id="Arrow1Lstart" orient="auto" refX="0" refY="0" style="overflow:visible"><path id="path3826" d="M 0.0,0.0 L 5.0,-5.0 L -12.5,0.0 L 5.0,5.0 L 0.0,0.0 z" transform="scale(0.8) translate(12.5,0)" style="fill-rule:evenodd;stroke:#000;stroke-width:1pt"/></marker><linearGradient id="linearGradient3144-6"><stop id="stop3146-9" offset="0" style="stop-color:#fff;stop-opacity:1"/><stop id="stop3148-2" offset="1" style="stop-color:#fff;stop-opacity:0"/></linearGradient><linearGradient id="linearGradient3701"><stop id="stop3703" offset="0" style="stop-color:#fff;stop-opacity:1"/><stop id="stop3705" offset="1" style="stop-color:#fff;stop-opacity:0"/></linearGradient><radialGradient id="radialGradient3688" cx="225.264" cy="672.797" r="34.345" fx="225.264" fy="672.797" gradientTransform="matrix(1,0,0,0.6985294,0,202.82863)" gradientUnits="userSpaceOnUse" xlink:href="#linearGradient3144-6"/><linearGradient id="linearGradient3708"><stop id="stop3710" offset="0" style="stop-color:#fff;stop-opacity:1"/><stop id="stop3712" offset="1" style="stop-color:#fff;stop-opacity:0"/></linearGradient><linearGradient id="linearGradient3864-0-0"><stop id="stop3866-5-7" offset="0" style="stop-color:#0619c0;stop-opacity:1"/><stop id="stop3868-7-6" offset="1" style="stop-color:#379cfb;stop-opacity:1"/></linearGradient><linearGradient id="linearGradient3377"><stop id="stop3379" offset="0" style="stop-color:#fa0;stop-opacity:1"/><stop id="stop3381" offset="1" style="stop-color:#faff2b;stop-opacity:1"/></linearGradient><linearGradient id="linearGradient3864-0"><stop id="stop3866-5" offset="0" style="stop-color:#0619c0;stop-opacity:1"/><stop id="stop3868-7" offset="1" style="stop-color:#379cfb;stop-opacity:1"/></linearGradient><linearGradient id="linearGradient5048"><stop style="stop-color:black;stop-opacity:0" id="stop5050" offset="0"/><stop id="stop5056" offset=".5" style="stop-color:black;stop-opacity:1"/><stop style="stop-color:black;stop-opacity:0" id="stop5052" offset="1"/></linearGradient><linearGradient id="linearGradient3841-0-3"><stop id="stop3843-1-3" offset="0" style="stop-color:#0619c0;stop-opacity:1"/><stop id="stop3845-0-8" offset="1" style="stop-color:#379cfb;stop-opacity:1"/></linearGradient><radialGradient id="aigrd2" cx="20.892" cy="114.568" r="5.256" fx="20.892" fy="114.568" gradientUnits="userSpaceOnUse"><stop id="stop15566" offset="0" style="stop-color:#f0f0f0"/><stop id="stop15568" offset="1" style="stop-color:#9a9a9a;stop-opacity:1"/></radialGradient><radialGradient id="aigrd3" cx="20.892" cy="64.568" r="5.257" fx="20.892" fy="64.568" gradientUnits="userSpaceOnUse"><stop id="stop15573" offset="0" style="stop-color:#f0f0f0"/><stop id="stop15575" offset="1" style="stop-color:#9a9a9a;stop-opacity:1"/></radialGradient><linearGradient id="linearGradient15662"><stop style="stop-color:#fff;stop-opacity:1" id="stop15664" offset="0"/><stop style="stop-color:#f8f8f8;stop-opacity:1" id="stop15666" offset="1"/></linearGradient><radialGradient id="radialGradient4452" cx="33.967" cy="35.737" r="86.708" fx="33.967" fy="35.737" gradientTransform="matrix(0.96049297,0,0,1.041132,-52.144249,-702.33158)" gradientUnits="userSpaceOnUse" xlink:href="#linearGradient259"/><linearGradient id="linearGradient259"><stop style="stop-color:#fafafa;stop-opacity:1" id="stop260" offset="0"/><stop style="stop-color:#bbb;stop-opacity:1" id="stop261" offset="1"/></linearGradient><radialGradient id="radialGradient4454" cx="8.824" cy="3.756" r="37.752" fx="8.824" fy="3.756" gradientTransform="matrix(0.96827297,0,0,1.032767,-48.790699,-701.68513)" gradientUnits="userSpaceOnUse" xlink:href="#linearGradient269"/><linearGradient id="linearGradient269"><stop style="stop-color:#a3a3a3;stop-opacity:1" id="stop270" offset="0"/><stop style="stop-color:#4c4c4c;stop-opacity:1" id="stop271" offset="1"/></linearGradient><linearGradient id="linearGradient4095"><stop style="stop-color:#005bff;stop-opacity:1" id="stop4097" offset="0"/><stop style="stop-color:#c1e3f7;stop-opacity:1" id="stop4099" offset="1"/></linearGradient><linearGradient id="linearGradient4253" x1="394.158" x2="434.739" y1="185.13" y2="140.227" gradientTransform="matrix(0.94231826,0,0,0.94231826,23.727549,8.8262536)" gradientUnits="userSpaceOnUse" xlink:href="#linearGradient4247"/><linearGradient id="linearGradient4247"><stop style="stop-color:#2e8207;stop-opacity:1" id="stop4249" offset="0"/><stop style="stop-color:#52ff00;stop-opacity:1" id="stop4251" offset="1"/></linearGradient><linearGradient id="linearGradient5087" x1="394.158" x2="434.739" y1="185.13" y2="140.227" gradientTransform="matrix(0.94231826,0,0,0.94231826,23.727549,8.8262536)" gradientUnits="userSpaceOnUse" xlink:href="#linearGradient4247"/><marker id="Arrow1Mstart-9" orient="auto" refX="0" refY="0" style="overflow:visible"><path id="path3832-1" d="M 0,0 5,-5 -12.5,0 5,5 0,0 z" transform="matrix(0.4,0,0,0.4,4,0)" style="fill-rule:evenodd;stroke:#000;stroke-width:1pt"/></marker><marker id="Arrow1Mend-2" orient="auto" refX="0" refY="0" style="overflow:visible"><path id="path3835-7" d="M 0,0 5,-5 -12.5,0 5,5 0,0 z" transform="matrix(-0.4,0,0,-0.4,-4,0)" style="fill-rule:evenodd;stroke:#000;stroke-width:1pt"/></marker><linearGradient id="linearGradient3895-5"><stop style="stop-color:#729fcf;stop-opacity:1" id="stop3897-6" offset="0"/><stop style="stop-color:#204a87;stop-opacity:1" id="stop3899-2" offset="1"/></linearGradient><linearGradient id="linearGradient3094-7-8"><stop id="stop3096-6-7" offset="0" style="stop-color:#4e9a06;stop-opacity:1"/><stop id="stop3098-0-4" offset="1" style="stop-color:#8ae234;stop-opacity:1"/></linearGradient></defs><metadata id="metadata3617"/><g id="layer1"><path id="path5098-3" d="m 8.999987,12.999998 0,42.000002 12,0" style="fill:none;stroke:#2e3436;stroke-width:6;stroke-linecap:butt;stroke-linejoin:round;stroke-miterlimit:4;stroke-opacity:1;stroke-dasharray:none"/><path id="path5100-6" d="m 23,23 -14.000013,-2e-6" style="fill:none;stroke:#2e3436;stroke-width:6;stroke-linecap:butt;stroke-linejoin:miter;stroke-miterlimit:4;stroke-opacity:1;stroke-dasharray:none"/><path id="path5098-36" d="m 8.999987,12.999998 0,42.000002 12,0" style="fill:none;stroke:#d3d7cf;stroke-width:2;stroke-linecap:butt;stroke-linejoin:round;stroke-miterlimit:4;stroke-opacity:1;stroke-dasharray:none"/><path id="path5100-7" d="m 24,23 -15.000013,-2e-6" style="fill:none;stroke:#d3d7cf;stroke-width:2;stroke-linecap:butt;stroke-linejoin:miter;stroke-miterlimit:4;stroke-opacity:1;stroke-dasharray:none"/><rect id="rect4258-1-7-4-5" width="38" height="10" x="3" y="3" rx="0" ry="0" style="color:#000;fill:#eeeeec;stroke:#2e3436;stroke-width:1.99999988;stroke-linecap:butt;stroke-linejoin:round;stroke-miterlimit:4;stroke-opacity:1;stroke-dasharray:none;stroke-dashoffset:0;marker:none;visibility:visible;display:inline;overflow:visible;enable-background:accumulate"/><rect style="fill:#d3d7cf;fill-opacity:1;stroke:#fff;stroke-width:2;stroke-linecap:butt;stroke-linejoin:miter;stroke-miterlimit:4;stroke-opacity:1;stroke-dasharray:none" id="rect3852-5-3" width="34" height="6" x="5" y="5"/><g id="g4294" transform="translate(8.5333989,-17.066798)"><rect style="color:#000;display:inline;overflow:visible;visibility:visible;fill:#eeeeec;stroke:#2e3436;stroke-width:1.99999988;stroke-linecap:butt;stroke-linejoin:round;stroke-miterlimit:4;stroke-dasharray:none;stroke-dashoffset:0;stroke-opacity:1;marker:none;enable-background:accumulate" id="rect4258-1-7-4-3" width="26.389" height="10" x="21" y="51" rx="0" ry="0"/><rect id="rect3852-5-5" width="22" height="6" x="23" y="53" style="fill:#d3d7cf;fill-opacity:1;stroke:#fff;stroke-width:1.99999976;stroke-linecap:butt;stroke-linejoin:miter;stroke-miterlimit:4;stroke-dasharray:none;stroke-opacity:1"/></g><path id="path5098-3-2" d="m 17,24 0,15 12,0" style="fill:none;stroke:#2e3436;stroke-width:5.99999952;stroke-linecap:butt;stroke-linejoin:round;stroke-miterlimit:4;stroke-opacity:1;stroke-dasharray:none"/><path id="path5098-36-6" d="m 17,23 0,16 12,0" style="fill:none;stroke:#d3d7cf;stroke-width:2;stroke-linecap:butt;stroke-linejoin:round;stroke-miterlimit:4;stroke-opacity:1;stroke-dasharray:none"/><g id="g4290" transform="translate(-1.1976703,-17.789654)"><rect style="color:#000;display:inline;overflow:visible;visibility:visible;fill:#3465a4;stroke:#0b1521;stroke-width:1.99999976;stroke-linecap:butt;stroke-linejoin:round;stroke-miterlimit:4;stroke-dasharray:none;stroke-dashoffset:0;stroke-opacity:1;marker:none;enable-background:accumulate" id="rect4258-1-7-4-7-3-6" width="24" height="10" x="25" y="35" rx="0" ry="0"/><rect id="rect3852-5-0" width="20" height="6" x="27" y="37" style="fill:#3465a4;fill-opacity:1;stroke:#729fcf;stroke-width:1.99999988;stroke-linecap:butt;stroke-linejoin:miter;stroke-miterlimit:4;stroke-dasharray:none;stroke-opacity:1"/></g><g id="g4298" transform="translate(0.29941747,-1.0479616)"><rect id="rect4300" width="26.389" height="10" x="21" y="51" rx="0" ry="0" style="color:#000;display:inline;overflow:visible;visibility:visible;fill:#eeeeec;stroke:#2e3436;stroke-width:1.99999988;stroke-linecap:butt;stroke-linejoin:round;stroke-miterlimit:4;stroke-dasharray:none;stroke-dashoffset:0;stroke-opacity:1;marker:none;enable-background:accumulate"/><rect style="fill:#d3d7cf;fill-opacity:1;stroke:#fff;stroke-width:1.99999976;stroke-linecap:butt;stroke-linejoin:miter;stroke-miterlimit:4;stroke-dasharray:none;stroke-opacity:1" id="rect4302" width="22" height="6" x="23" y="53"/></g><g id="g4269" transform="translate(89.959784,44.76323)"><path id="path3599" d="m -51.570223,-24.594651 c -9.673905,0 -20.960132,6.23975 -25.797084,18.7192692 4.836952,9.359651 14.510857,15.599401 25.797084,15.599401 11.286237,0 20.960142,-6.23975 25.797094,-15.599401 -4.836952,-12.4795192 -16.123179,-18.7192692 -25.797094,-18.7192692 z m 0,31.1987862 c -9.673905,0 -17.73549,-6.23975001 -19.34781,-12.479517 1.61232,-6.2397512 9.673905,-12.4795192 19.34781,-12.4795192 9.673915,0 17.7355,6.239768 19.34782,12.4795192 -1.61232,6.23976699 -9.673905,12.479517 -19.34782,12.479517 z m 0,-21.8391522 c -1.007692,0 -1.914621,0.194993 -2.821549,0.438734 1.662698,0.731222 2.821549,2.339912 2.821549,4.241091 0,2.5836552 -2.166544,4.6798102 -4.836953,4.6798102 -1.965006,0 -3.627715,-1.121208 -4.383483,-2.729881 -0.251923,0.877467 -0.453469,1.754917 -0.453469,2.729881 0,5.16730599 4.333107,9.359651 9.673905,9.359651 5.340808,0 9.673915,-4.19234501 9.673915,-9.359651 0,-5.1672922 -4.333107,-9.3596352 -9.673915,-9.3596352 z"/><path id="path3630" d="m -53.259637,6.4675682 c -4.354874,-0.463793 -8.192835,-1.869112 -11.411619,-4.178511 -2.536745,-1.82005201 -5.046299,-4.9198 -5.861666,-7.240204 -0.309115,-0.879688 -0.308248,-0.913841 0.04894,-1.928284 1.39318,-3.9567362 5.894877,-8.0253272 10.97742,-9.9212892 2.388118,-0.890851 4.189049,-1.243432 6.954324,-1.361503 3.700832,-0.158017 6.748099,0.39488 10.068295,1.826794 4.509958,1.945026 8.541022,5.827623 9.860413,9.4972422 l 0.343034,0.954079 -0.406823,1.087884 c -1.903008,5.08882999 -8.045412,9.656313 -14.648854,10.892867 -1.533211,0.287106 -4.793511,0.491266 -5.923465,0.370925 z m 3.944714,-3.168696 c 3.268532,-0.752696 6.040924,-3.25030901 7.009108,-6.314414 0.74188,-2.347903 0.609807,-4.448295 -0.422862,-6.724951 -1.727573,-3.8086552 -5.799065,-6.0001952 -10.098702,-5.4357712 -0.713226,0.09362 -1.36028,0.238742 -1.437897,0.322477 -0.07761,0.08374 0.205724,0.373163 0.629646,0.643172 2.40184,1.529797 2.621108,4.9303232 0.448249,6.9517122 -2.087088,1.941597 -5.735326,1.528636 -7.161292,-0.810623 -0.190194,-0.312008 -0.397714,-0.56753 -0.461157,-0.567826 -0.184558,-8.66e-4 -0.490195,1.808374 -0.485585,2.874447 0.0097,2.22833 0.762415,4.123494 2.376571,5.98316799 2.345137,2.70183501 6.063739,3.89386201 9.603921,3.07860901 z" style="opacity:.55800003;fill:#fff;stroke:#ed1521;stroke-width:.18025407;stroke-opacity:1"/></g></g></svg>