<svg xmlns="http://www.w3.org/2000/svg" xmlns:svg="http://www.w3.org/2000/svg" xmlns:xlink="http://www.w3.org/1999/xlink" id="svg2985" width="64" height="64" version="1.1"><defs id="defs2987"><linearGradient id="linearGradient3905" x1="145.72" x2="127.682" y1="158.352" y2="117.972" gradientUnits="userSpaceOnUse" xlink:href="#linearGradient3899"/><linearGradient id="linearGradient3899"><stop style="stop-color:#a40000;stop-opacity:1" id="stop3901" offset="0"/><stop style="stop-color:#ef2929;stop-opacity:1" id="stop3903" offset="1"/></linearGradient><linearGradient id="linearGradient4039" x1="145.72" x2="127.682" y1="158.352" y2="117.972" gradientUnits="userSpaceOnUse" xlink:href="#linearGradient3899"/><linearGradient id="linearGradient3907" x1="145.72" x2="127.682" y1="158.352" y2="117.972" gradientUnits="userSpaceOnUse" xlink:href="#linearGradient3899"/><linearGradient id="linearGradient3897" x1="130.565" x2="147.897" y1="118.313" y2="157.057" gradientUnits="userSpaceOnUse" xlink:href="#linearGradient3891"/><linearGradient id="linearGradient3891"><stop style="stop-color:#a40000;stop-opacity:1" id="stop3893" offset="0"/><stop style="stop-color:#ef2929;stop-opacity:1" id="stop3895" offset="1"/></linearGradient><linearGradient id="linearGradient4041" x1="130.565" x2="147.897" y1="118.313" y2="157.057" gradientUnits="userSpaceOnUse" xlink:href="#linearGradient3891"/><linearGradient id="linearGradient4043" x1="130.565" x2="147.897" y1="118.313" y2="157.057" gradientUnits="userSpaceOnUse" xlink:href="#linearGradient3891"/><linearGradient id="linearGradient3781" x1="14" x2="10" y1="46" y2="18" gradientTransform="translate(-56,-27.999996)" gradientUnits="userSpaceOnUse" xlink:href="#linearGradient3775"/><linearGradient id="linearGradient3775"><stop style="stop-color:#16d0d2;stop-opacity:1" id="stop3777" offset="0"/><stop style="stop-color:#34e0e2;stop-opacity:1" id="stop3779" offset="1"/></linearGradient><linearGradient id="linearGradient3789" x1="50" x2="42" y1="44" y2="24" gradientTransform="translate(-56,-27.999996)" gradientUnits="userSpaceOnUse" xlink:href="#linearGradient3783"/><linearGradient id="linearGradient3783"><stop style="stop-color:#06989a;stop-opacity:1" id="stop3785" offset="0"/><stop style="stop-color:#16d0d2;stop-opacity:1" id="stop3787" offset="1"/></linearGradient></defs><metadata id="metadata2990"/><g id="layer1" transform="translate(0,48)"><g id="g4171" transform="matrix(0.73241959,0,0,0.73241959,8.6899943,-3.3893526)"><g style="display:inline;fill:none;stroke:#280000;stroke-width:6.63545132" id="g3879" transform="matrix(1.2056452,0,0,1.2056452,-134.37903,-182.37904)"><circle id="circle3869" cx="138" cy="138" r="124" transform="matrix(0.17391304,0,0,0.17391304,114,114)" style="fill:none;stroke:#280000;stroke-width:38.15384674"/><line id="line3871" x1="121.826" x2="154.174" y1="121.826" y2="154.174" style="fill:none;stroke:#280000;stroke-width:6.63545132"/></g><circle id="circle3869-3" cx="138" cy="138" r="124" transform="matrix(0.20967742,0,0,0.2096774,3.064514,-44.935485)" style="display:inline;fill:none;stroke:url(#linearGradient4041);stroke-width:19.07692146"/><line id="line3871-5" x1="168.274" x2="200.622" y1="105.237" y2="137.585" transform="matrix(1.2056452,0,0,1.2056451,-190.37904,-162.37903)" style="display:inline;fill:none;stroke:url(#linearGradient4043);stroke-width:3.31772542"/><g style="display:inline;fill:none;stroke:url(#linearGradient3905);stroke-width:1.59742367" id="g3879-5-6" transform="matrix(1.2520161,0,0,1.2520161,-140.77822,-188.77822)"><circle id="circle3869-3-2" cx="138" cy="138" r="124" transform="matrix(0.17391304,0,0,0.17391304,114,114)" style="fill:none;stroke:url(#linearGradient4039);stroke-width:9.18518734"/><line id="line3871-5-9" x1="125.081" x2="152.377" y1="123.51" y2="150.779" style="fill:none;stroke:url(#linearGradient3907);stroke-width:1.59742391;stroke-linecap:butt"/></g></g></g></svg>