<svg xmlns="http://www.w3.org/2000/svg" xmlns:svg="http://www.w3.org/2000/svg" xmlns:xlink="http://www.w3.org/1999/xlink" id="svg2980" width="64" height="64" version="1.1"><defs id="defs2982"><linearGradient id="linearGradient4277"><stop id="stop4279" offset="0" style="stop-color:#ccc;stop-opacity:1"/><stop id="stop4281" offset="1" style="stop-color:#969696;stop-opacity:1"/></linearGradient><linearGradient id="linearGradient3864"><stop id="stop3866" offset="0" style="stop-color:#71b2f8;stop-opacity:1"/><stop id="stop3868" offset="1" style="stop-color:#002795;stop-opacity:1"/></linearGradient><radialGradient id="radialGradient3850" cx="51.329" cy="31.074" r="19.571" fx="51.329" fy="31.074" gradientTransform="matrix(0.6028459,1.0471639,-1.9794021,1.1395295,127.9588,-74.456907)" gradientUnits="userSpaceOnUse" xlink:href="#linearGradient3864"/><radialGradient id="radialGradient3699" cx="76.383" cy="94.37" r="19.467" fx="76.383" fy="94.37" gradientTransform="matrix(0.9818943,0.1894295,-0.4109427,2.1300924,40.163453,-121.11559)" gradientUnits="userSpaceOnUse" xlink:href="#linearGradient3377-6"/><linearGradient id="linearGradient3377"><stop id="stop3379" offset="0" style="stop-color:#faff2b;stop-opacity:1"/><stop id="stop3381" offset="1" style="stop-color:#fa0;stop-opacity:1"/></linearGradient><radialGradient id="radialGradient3701" cx="84.883" cy="77.043" r="19.467" fx="84.883" fy="77.043" gradientTransform="matrix(2.8492421,1.2585119,-0.4040415,0.9147407,-125.84131,-100.25805)" gradientUnits="userSpaceOnUse" xlink:href="#linearGradient3377"/><linearGradient id="linearGradient3007"><stop id="stop3009" offset="0" style="stop-color:#faff2b;stop-opacity:1"/><stop id="stop3011" offset="1" style="stop-color:#fa0;stop-opacity:1"/></linearGradient><radialGradient id="radialGradient3017" cx="84.883" cy="77.043" r="19.467" fx="84.883" fy="77.043" gradientTransform="matrix(2.8492421,1.2585119,-0.4040415,0.9147407,-125.84131,-100.25805)" gradientUnits="userSpaceOnUse" xlink:href="#linearGradient3377-6"/><radialGradient id="radialGradient3699-2" cx="76.383" cy="94.37" r="19.467" fx="76.383" fy="94.37" gradientTransform="matrix(0.9818943,0.1894295,-0.4109427,2.1300924,40.163453,-121.11559)" gradientUnits="userSpaceOnUse" xlink:href="#linearGradient3377-6"/><linearGradient id="linearGradient3377-6"><stop id="stop3379-2" offset="0" style="stop-color:#00afff;stop-opacity:1"/><stop id="stop3381-4" offset="1" style="stop-color:#0034ff;stop-opacity:1"/></linearGradient><radialGradient id="radialGradient3017-8" cx="84.883" cy="77.043" r="19.467" fx="84.883" fy="77.043" gradientTransform="matrix(2.8492421,1.2585119,-0.4040415,0.9147407,-125.84131,-100.25805)" gradientUnits="userSpaceOnUse" xlink:href="#linearGradient3377-6"/><linearGradient id="linearGradient3835"><stop id="stop3837" offset="0" style="stop-color:#faff2b;stop-opacity:1"/><stop id="stop3839" offset="1" style="stop-color:#fa0;stop-opacity:1"/></linearGradient><radialGradient id="radialGradient3844" cx="84.883" cy="77.043" r="19.467" fx="84.883" fy="77.043" gradientTransform="matrix(2.8492421,1.2585119,-0.4040415,0.9147407,-125.84131,-100.25805)" gradientUnits="userSpaceOnUse" xlink:href="#linearGradient3377-6"/><radialGradient id="radialGradient3699-7" cx="76.383" cy="94.37" r="19.467" fx="76.383" fy="94.37" gradientTransform="matrix(0.9818943,0.1894295,-0.4109427,2.1300924,40.163453,-121.11559)" gradientUnits="userSpaceOnUse" xlink:href="#linearGradient3377-6"/><linearGradient id="linearGradient3377-2"><stop id="stop3379-7" offset="0" style="stop-color:#faff2b;stop-opacity:1"/><stop id="stop3381-8" offset="1" style="stop-color:#fa0;stop-opacity:1"/></linearGradient><radialGradient id="radialGradient3017-6" cx="84.883" cy="77.043" r="19.467" fx="84.883" fy="77.043" gradientTransform="matrix(2.8492421,1.2585119,-0.4040415,0.9147407,-125.84131,-100.25805)" gradientUnits="userSpaceOnUse" xlink:href="#linearGradient3377-2"/><linearGradient id="linearGradient3835-1"><stop id="stop3837-0" offset="0" style="stop-color:#faff2b;stop-opacity:1"/><stop id="stop3839-9" offset="1" style="stop-color:#fa0;stop-opacity:1"/></linearGradient><radialGradient id="radialGradient3844-7" cx="84.883" cy="77.043" r="19.467" fx="84.883" fy="77.043" gradientTransform="matrix(2.8492421,1.2585119,-0.4040415,0.9147407,-125.84131,-100.25805)" gradientUnits="userSpaceOnUse" xlink:href="#linearGradient3377-6"/><radialGradient id="radialGradient4112" cx="86.837" cy="90.601" r="19.467" fx="86.837" fy="90.601" gradientTransform="matrix(-0.19157613,0.46621455,-1.1364164,-0.41904304,156.5648,24.076707)" gradientUnits="userSpaceOnUse" xlink:href="#linearGradient4032"/><linearGradient id="linearGradient4032"><stop style="stop-color:#71b2f8;stop-opacity:1" id="stop4034" offset="0"/><stop style="stop-color:#002795;stop-opacity:1" id="stop4036" offset="1"/></linearGradient><radialGradient id="radialGradient4114" cx="113.502" cy="65.849" r="19.467" fx="113.502" fy="65.849" gradientTransform="matrix(0.19036833,-0.61386357,1.99853,-0.19092801,-47.133199,165.45559)" gradientUnits="userSpaceOnUse" xlink:href="#linearGradient4032"/><linearGradient id="linearGradient3171"><stop style="stop-color:#ccc;stop-opacity:1" id="stop3173" offset="0"/><stop style="stop-color:#b4b4b4;stop-opacity:1" id="stop3175" offset="1"/></linearGradient><radialGradient id="radialGradient3180" cx="113.502" cy="65.849" r="19.467" fx="113.502" fy="65.849" gradientTransform="matrix(0.19036833,-0.61386357,1.99853,-0.19092801,-47.133199,165.45559)" gradientUnits="userSpaceOnUse" xlink:href="#linearGradient4032"/><radialGradient id="radialGradient4112-9" cx="86.837" cy="90.601" r="19.467" fx="86.837" fy="90.601" gradientTransform="matrix(-0.19157613,0.46621455,-1.1364164,-0.41904304,162.99236,26.56694)" gradientUnits="userSpaceOnUse" xlink:href="#linearGradient4032-7"/><linearGradient id="linearGradient4032-7"><stop style="stop-color:#71b2f8;stop-opacity:1" id="stop4034-3" offset="0"/><stop style="stop-color:#002795;stop-opacity:1" id="stop4036-6" offset="1"/></linearGradient><radialGradient id="radialGradient4114-3" cx="113.502" cy="65.849" r="19.467" fx="113.502" fy="65.849" gradientTransform="matrix(0.19036833,-0.61386357,1.99853,-0.19092801,-47.133199,165.45559)" gradientUnits="userSpaceOnUse" xlink:href="#linearGradient4032-7"/><linearGradient id="linearGradient3171-9"><stop style="stop-color:#969696;stop-opacity:1" id="stop3173-7" offset="0"/><stop style="stop-color:#646464;stop-opacity:1" id="stop3175-5" offset="1"/></linearGradient><radialGradient id="radialGradient3180-6" cx="113.502" cy="65.849" r="19.467" fx="113.502" fy="65.849" gradientTransform="matrix(0.19036833,-0.61386357,1.99853,-0.19092801,-47.133199,165.45559)" gradientUnits="userSpaceOnUse" xlink:href="#linearGradient4032-7"/><radialGradient id="radialGradient4112-7" cx="86.837" cy="90.601" r="19.467" fx="86.837" fy="90.601" gradientTransform="matrix(-0.19157613,0.46621455,-1.1364164,-0.41904304,156.5648,24.076707)" gradientUnits="userSpaceOnUse" xlink:href="#linearGradient4032-8"/><linearGradient id="linearGradient4032-8"><stop style="stop-color:#71b2f8;stop-opacity:1" id="stop4034-4" offset="0"/><stop style="stop-color:#002795;stop-opacity:1" id="stop4036-3" offset="1"/></linearGradient><radialGradient id="radialGradient4114-9" cx="113.502" cy="65.849" r="19.467" fx="113.502" fy="65.849" gradientTransform="matrix(0.19036833,-0.61386357,1.99853,-0.19092801,-47.133199,165.45559)" gradientUnits="userSpaceOnUse" xlink:href="#linearGradient4032-8"/><linearGradient id="linearGradient3171-1"><stop style="stop-color:#71b2f8;stop-opacity:1" id="stop3173-0" offset="0"/><stop style="stop-color:#002795;stop-opacity:1" id="stop3175-3" offset="1"/></linearGradient><radialGradient id="radialGradient3180-9" cx="113.502" cy="65.849" r="19.467" fx="113.502" fy="65.849" gradientTransform="matrix(0.19036833,-0.61386357,1.99853,-0.19092801,-47.133199,165.45559)" gradientUnits="userSpaceOnUse" xlink:href="#linearGradient4032-8"/><linearGradient id="linearGradient3822" x1="154.135" x2="165.616" y1="33.267" y2="46.43" gradientUnits="userSpaceOnUse" xlink:href="#linearGradient4032-0"/><linearGradient id="linearGradient4032-0"><stop style="stop-color:#71b2f8;stop-opacity:1" id="stop4034-37" offset="0"/><stop style="stop-color:#002795;stop-opacity:1" id="stop4036-1" offset="1"/></linearGradient><radialGradient id="radialGradient3703" cx="132.705" cy="90.193" r="19.467" fx="132.705" fy="90.193" gradientTransform="matrix(-0.08162339,1.3949072,-1.1572569,-0.26963374,245.22773,-105.44363)" gradientUnits="userSpaceOnUse" xlink:href="#linearGradient4032-0"/><linearGradient id="linearGradient3284"><stop style="stop-color:#71b2f8;stop-opacity:1" id="stop3286" offset="0"/><stop style="stop-color:#002795;stop-opacity:1" id="stop3288" offset="1"/></linearGradient><radialGradient id="radialGradient3294" cx="132.705" cy="90.193" r="19.467" fx="132.705" fy="90.193" gradientTransform="matrix(-0.08162339,1.3949072,-1.1572569,-0.26963374,245.22773,-105.44363)" gradientUnits="userSpaceOnUse" xlink:href="#linearGradient4032-0"/><linearGradient id="linearGradient4029" x1="45" x2="50" y1="34" y2="59" gradientUnits="userSpaceOnUse" xlink:href="#linearGradient4023"/><linearGradient id="linearGradient4023"><stop style="stop-color:#8ae234;stop-opacity:1" id="stop4025" offset="0"/><stop style="stop-color:#4e9a06;stop-opacity:1" id="stop4027" offset="1"/></linearGradient><linearGradient id="linearGradient3783" x1="60" x2="50" y1="58" y2="38" gradientTransform="translate(-16,0)" gradientUnits="userSpaceOnUse" xlink:href="#linearGradient3171-9"/><linearGradient id="linearGradient3773" x1="26" x2="22" y1="64" y2="46" gradientTransform="translate(-16,0)" gradientUnits="userSpaceOnUse" xlink:href="#linearGradient3171"/><linearGradient id="linearGradient3807-3-9" x1="123.545" x2="71.182" y1="43.631" y2="35.897" gradientTransform="matrix(0.45833337,0,0,0.51724135,7.374997,5.432404)" gradientUnits="userSpaceOnUse" spreadMethod="reflect" xlink:href="#linearGradient4277"/><linearGradient id="linearGradient3807-3" x1="110" x2="40.636" y1="35" y2="28.133" gradientTransform="matrix(0.45833337,0,0,0.51724135,-28.625003,1.4482735)" gradientUnits="userSpaceOnUse" spreadMethod="reflect" xlink:href="#linearGradient3377-6"/><linearGradient id="linearGradient3807-3-9-3" x1="110" x2="85" y1="35" y2="35" gradientTransform="matrix(0.45833337,0,0,0.51724135,7.374996,33.448275)" gradientUnits="userSpaceOnUse" spreadMethod="reflect" xlink:href="#linearGradient3801-6-1-6"/><linearGradient id="linearGradient3801-6-1-6"><stop style="stop-color:#c4a000;stop-opacity:1" id="stop3803-7-2-7" offset="0"/><stop style="stop-color:#fce94f;stop-opacity:1" id="stop3805-5-7-5" offset="1"/></linearGradient><linearGradient id="linearGradient4209" x1="747.433" x2="140.47" y1="430.93" y2="112.997" gradientTransform="matrix(0.08605681,0,0,0.08605681,17.418304,18.228459)" gradientUnits="userSpaceOnUse" xlink:href="#linearGradient3891"/><linearGradient id="linearGradient3891"><stop style="stop-color:#a40000;stop-opacity:1" id="stop3893" offset="0"/><stop style="stop-color:#ef2929;stop-opacity:1" id="stop3895" offset="1"/></linearGradient></defs><metadata id="metadata2985"/><g id="layer1"><g id="g3205"><path id="path2994-3-3" d="m 25.000001,24.86206 c 0,2.28532 -4.924867,4.13794 -11,4.13794 C 7.924868,29 3,27.14738 3,24.86206 l -1e-6,-17.7241305 22.000001,0 z" style="fill:#729fcf;stroke:#0b1521;stroke-width:2;stroke-linecap:round;stroke-linejoin:round;stroke-miterlimit:4.5;stroke-opacity:1;stroke-dashoffset:20.4"/><path id="path2994-3-6-5" d="m 23,24 c 0,2.07756 -5.999802,3.01587 -9,3.01587 -3,0 -9,-0.93831 -9,-3.01587 l -1e-6,-15.6551715 18.000001,0 z" style="fill:url(#linearGradient3807-3);fill-opacity:1;stroke:#4abdf5;stroke-width:2;stroke-linecap:round;stroke-linejoin:round;stroke-miterlimit:4.5;stroke-opacity:1;stroke-dashoffset:20.4"/><path id="path2994-3-6-9-6" d="M 23,11.000001 C 21,13 17,13.351648 14,13.351648 11,13.351648 7,13 5,11.000001" style="fill:none;stroke:#4abdf5;stroke-width:2;stroke-linecap:round;stroke-linejoin:round;stroke-miterlimit:4.5;stroke-opacity:1;stroke-dashoffset:20.4"/><path id="path2994-2" d="m -14,25 c 0,3.865993 -9.40202,7 -21,7 -11.59798,0 -21,-3.134007 -21,-7 0,-3.865993 9.40202,-7 21,-7 11.59798,0 21,3.134007 21,7 z" transform="matrix(0.52380955,0,0,0.59113297,32.333335,-7.640393)" style="fill:#ccc;stroke:#0b1521;stroke-width:3.59418702;stroke-linecap:round;stroke-linejoin:round;stroke-miterlimit:4.5;stroke-opacity:1;stroke-dasharray:none;stroke-dashoffset:20.4;fill-opacity:1"/></g><g id="g3199"><path id="path2994-3-3-0" d="m 61.000001,28.84619 c 0,2.28532 -4.924867,4.13794 -11,4.13794 C 43.924868,32.98413 39,31.13151 39,28.84619 l -10e-7,-17.72413 22.000001,0 z" style="fill:#729fcf;stroke:#0b1521;stroke-width:2;stroke-linecap:round;stroke-linejoin:round;stroke-miterlimit:4.5;stroke-opacity:1;stroke-dashoffset:20.4"/><path id="path2994-3-6-5-9" d="M 59,27.98413 C 59,30.06169 53.000198,31 50,31 47,31 41,30.06169 41,27.98413 l -10e-7,-15.655171 18.000001,0 z" style="fill:url(#linearGradient3807-3-9);fill-opacity:1;stroke:#ccc;stroke-width:2;stroke-linecap:round;stroke-linejoin:round;stroke-miterlimit:4.5;stroke-opacity:1;stroke-dashoffset:20.4"/><path id="path2994-3-6-9-6-3" d="m 59,14.984131 c -2,1.999999 -6,2.351647 -9,2.351647 -3,0 -7,-0.351648 -9,-2.351647" style="fill:none;stroke:#ccc;stroke-width:2;stroke-linecap:round;stroke-linejoin:round;stroke-miterlimit:4.5;stroke-opacity:1;stroke-dashoffset:20.4"/><path id="path2994-2-6" d="m -14,25 c 0,3.865993 -9.40202,7 -21,7 -11.59798,0 -21,-3.134007 -21,-7 0,-3.865993 9.40202,-7 21,-7 11.59798,0 21,3.134007 21,7 z" transform="matrix(0.52380955,0,0,0.59113297,68.333335,-3.6562625)" style="fill:#ccc;stroke:#0b1521;stroke-width:3.59418702;stroke-linecap:round;stroke-linejoin:round;stroke-miterlimit:4.5;stroke-opacity:1;stroke-dasharray:none;stroke-dashoffset:20.4;fill-opacity:1"/></g><g id="g3192"><path id="path2993" d="M 3,35 21,39 37,35 21,31 z" style="fill:#ccc;stroke:#0b1521;stroke-width:2;stroke-linecap:butt;stroke-linejoin:round;stroke-opacity:1;fill-opacity:1"/><path id="path2995" d="m 37,35 0,20 -16,6 0,-22 z" style="fill:url(#linearGradient3783);fill-opacity:1;stroke:#0b1521;stroke-width:2;stroke-linecap:butt;stroke-linejoin:round;stroke-opacity:1"/><path style="fill:url(#linearGradient3773);fill-opacity:1;fill-rule:evenodd;stroke:#0b1521;stroke-width:2;stroke-linecap:butt;stroke-linejoin:round;stroke-miterlimit:4;stroke-opacity:1;stroke-dasharray:none;stroke-dashoffset:0;marker:none;visibility:visible;display:inline;overflow:visible;enable-background:accumulate" id="path3825" d="M 3,35 21,39 21,61 3,57 z"/><path id="path3765" d="m 5,37.42772 0.0087,17.919116 14.008671,3.268799 -0.0087,-17.933614 z" style="fill:none;stroke:#ccc;stroke-width:2;stroke-linecap:butt;stroke-linejoin:miter;stroke-opacity:1"/><path id="path3775" d="m 23.01243,40.433833 -0.01226,17.535301 12.001105,-4.300993 3.6e-4,-15.867363 z" style="fill:none;stroke:#969696;stroke-width:2;stroke-linecap:butt;stroke-linejoin:miter;stroke-opacity:1"/></g><path id="path4" d="m 43.586716,53.159516 c 0.403264,0.403263 0.403264,1.05712 0,1.460464 l -3.8445,3.844508 c -5.099987,5.099893 -13.398443,5.100235 -18.498854,0 -5.100075,-5.100161 -5.100075,-13.398701 0,-18.498775 l 3.844586,-3.844587 c 0.403258,-0.403258 1.057121,-0.403258 1.460465,0 l 3.407678,3.407683 c 0.403264,0.403257 0.403264,1.057121 0,1.460465 l -3.844589,3.844501 c -2.415781,2.415875 -2.415781,6.346688 0,8.762564 2.415789,2.415788 6.346689,2.415869 8.762653,0 l 3.8445,-3.844501 c 0.403263,-0.403263 1.057122,-0.403263 1.460471,0 l 3.40759,3.407678 z m -4.868061,-22.39336 c 0.403263,0.403265 1.057122,0.403265 1.460471,0 l 3.844501,-3.844498 c 2.415782,-2.416045 6.346689,-2.415876 8.762646,0 2.415787,2.415874 2.415787,6.346688 0,8.762564 l -3.844589,3.844499 c -0.403263,0.403257 -0.403263,1.057121 0,1.460466 l 3.407676,3.407676 c 0.403266,0.403264 1.057121,0.403264 1.460473,0 l 3.844588,-3.844582 c 5.100156,-5.100161 5.100156,-13.398619 0,-18.498774 -5.100243,-5.100067 -13.398612,-5.100067 -18.498856,0 l -3.844499,3.8445 c -0.403265,0.403266 -0.403265,1.057129 0,1.460474 l 3.407589,3.407675 z M 58.9272,61.684647 60.874404,59.737435 c 0.806616,-0.806609 0.806616,-2.114329 0,-2.920851 L 22.891345,18.83335 c -0.806609,-0.806608 -2.114331,-0.806608 -2.920851,0 l -1.947292,1.947292 c -0.806615,0.806615 -0.806615,2.114329 0,2.920856 l 37.983141,37.983149 c 0.806615,0.806519 2.114329,0.806519 2.920857,0 z" style="fill:url(#linearGradient4209);fill-opacity:1;stroke:#280000;stroke-width:2;stroke-miterlimit:4;stroke-dasharray:none;stroke-opacity:1"/></g></svg>