<svg xmlns="http://www.w3.org/2000/svg" xmlns:svg="http://www.w3.org/2000/svg" xmlns:xlink="http://www.w3.org/1999/xlink" id="svg2816" width="64" height="64" version="1.1"><defs id="defs2818"><linearGradient id="linearGradient4029" x1="45" x2="50" y1="34" y2="59" gradientUnits="userSpaceOnUse" xlink:href="#linearGradient4023"/><linearGradient id="linearGradient4023"><stop style="stop-color:#8ae234;stop-opacity:1" id="stop4025" offset="0"/><stop style="stop-color:#4e9a06;stop-opacity:1" id="stop4027" offset="1"/></linearGradient></defs><metadata id="metadata2821"/><g id="g4279" transform="translate(0.60592319,-3.1240777)"><g id="g4269" transform="matrix(0.98185387,-0.18963905,0.18963905,0.98185387,-8.2586686,1.7494738)"><path style="fill:none;stroke:#172a04;stroke-width:8;stroke-linecap:round;stroke-linejoin:miter;stroke-opacity:1" id="path6397-3" d="M 8.5539856,45.653481 36.927779,35.989795"/><g id="g4191" transform="matrix(0.92948156,0.36886858,-0.36886858,0.92948156,-5.161415,3.5397752)"><path id="path6514" d="m 56.301546,9.8662949 c 2.380189,2.4586491 2.356371,7.1457861 0.562268,8.4303771 -1.794104,1.284591 -3.882477,1.614145 -6.262666,-0.844506 -2.380188,-2.45865 -3.71292,-5.928709 -2.506121,-7.9449766 1.206798,-2.0162674 5.82633,-2.0995447 8.206519,0.3591055 z" style="fill:#8ae234;fill-opacity:1;stroke:#172a04;stroke-width:2.00000024;stroke-linecap:round;stroke-linejoin:round;stroke-miterlimit:32.20000076;stroke-opacity:1"/><path id="path6475-3-5" d="M 57.675023,17.196253 C 59.125757,14.079173 55.786493,7.1175596 49.88913,8.2225984 L 61.683856,6.0125218 Z" style="fill:#73d216;stroke:#172a04;stroke-width:2;stroke-linecap:round;stroke-linejoin:round;stroke-miterlimit:32.20000076;stroke-opacity:1"/><path id="path6571" d="m 54.164074,9.3183964 6.831678,-1.301668" style="fill:none;stroke:#8ae234;stroke-width:2;stroke-linecap:butt;stroke-linejoin:miter;stroke-opacity:1"/><path id="path6475-3-5-1" d="M 57.656587,17.221263 C 59.10732,14.104182 55.768056,7.1425689 49.870693,8.2476077 L 61.665419,6.0375311 Z" style="fill:none;stroke:#172a04;stroke-width:2;stroke-linecap:round;stroke-linejoin:round;stroke-miterlimit:32.20000076;stroke-opacity:1"/><path id="path6397-3-7" d="M 28.282635,34.084733 51.090922,14.636314" style="fill:none;stroke:#73d216;stroke-width:4;stroke-linecap:round;stroke-linejoin:miter;stroke-opacity:1"/><path id="path6397-3-7-7" d="M 27.716662,33.28548 50.524948,13.83706" style="fill:none;stroke:#8ae234;stroke-width:2;stroke-linecap:round;stroke-linejoin:miter;stroke-opacity:1"/></g></g><g id="g4184" transform="matrix(0.92948156,0.36886858,-0.36886858,0.92948156,-5.161415,3.5397752)"><path style="fill:none;stroke:#0b1521;stroke-width:8;stroke-linecap:round;stroke-linejoin:miter;stroke-opacity:1" id="path6419" d="m 20.574,14.664038 7.708635,19.420695"/><path style="fill:none;stroke:#3465a4;stroke-width:4;stroke-linecap:round;stroke-linejoin:miter;stroke-opacity:1" id="path6419-6" d="m 20.574,14.664038 7.708635,19.420695"/><path style="fill:none;stroke:#729fcf;stroke-width:2;stroke-linecap:round;stroke-linejoin:miter;stroke-opacity:1" id="path6419-6-2" d="m 19.591106,14.848211 7.708636,19.420696"/><path style="fill:#3465a4;stroke:#0b1521;stroke-width:2;stroke-linecap:round;stroke-linejoin:round;stroke-miterlimit:32.20000076;stroke-opacity:1" id="path6475" d="M 25.784624,9.8940192 C 24.447439,13.983293 16.814109,16.316975 13.522059,15.037005 l 1.87136,-11.7316318 z"/><path style="fill:none;stroke:#729fcf;stroke-width:2;stroke-linecap:round;stroke-linejoin:miter;stroke-miterlimit:32.20000076;stroke-opacity:1" id="path6475-6" d="m 23.173929,10.50514 c -1.088305,1.548234 -4.835095,3.046266 -7.403563,2.95258 l 1.047955,-6.930515 z"/></g><g id="g4177" transform="matrix(0.98847886,-0.15135896,0.15135896,0.98847886,-24.876777,16.01178)"><path style="fill:none;stroke:#280000;stroke-width:8;stroke-linecap:round;stroke-linejoin:miter;stroke-opacity:1" id="path6397" d="M 28.282635,34.084733 48.721677,45.429535"/><path style="fill:none;stroke:#c00;stroke-width:4;stroke-linecap:round;stroke-linejoin:miter;stroke-opacity:1" id="path6397-5" d="M 28.282635,34.084733 48.721677,45.429535"/><path style="fill:none;stroke:#ef2929;stroke-width:2;stroke-linecap:round;stroke-linejoin:miter;stroke-opacity:1" id="path6397-5-0" d="M 27.563165,34.802163 48.002207,46.146965"/><path style="fill:#c00;stroke:#280000;stroke-width:2;stroke-linecap:round;stroke-linejoin:round;stroke-miterlimit:32.20000076;stroke-opacity:1" id="path6475-3" d="m 44.154236,49.799985 c -1.00857,-4.115837 4.453037,-9.683235 8.029404,-10.133289 l 4.620086,10.887343 z"/><path style="fill:none;stroke:#ef2929;stroke-width:2;stroke-linecap:round;stroke-linejoin:miter;stroke-miterlimit:32.20000076;stroke-opacity:1" id="path6475-6-2" d="m 46.097609,48.060608 c 0.127899,-1.831027 2.617666,-4.866574 4.923727,-5.991774 l 2.785967,6.402357 z"/></g></g><g id="g4265" transform="translate(1.3346056,1.1625214)"><path id="path4019" d="m 33,43 0,8 10,0 0,10 8,0 0,-10 10,0 0,-8 -10,0 0,-10 -8,0 0,10 z" style="fill:url(#linearGradient4029);fill-opacity:1;stroke:#172a04;stroke-width:1.99999988;stroke-linecap:butt;stroke-linejoin:round;stroke-opacity:1"/><path id="path4021" d="m 45,35 0,10 -10,0 0,4 10,0 0,10 4,0 0,-10 10,0 0,-4 -10,0 0,-10 z" style="fill:none;stroke:#8ae234;stroke-width:2;stroke-linecap:butt;stroke-linejoin:miter;stroke-opacity:1"/></g></svg>